<svg width="398" height="600" viewBox="0 0 398 600" fill="none" xmlns="http://www.w3.org/2000/svg">
<g opacity="0.44">
<path d="M4.37363 390.75V386.375H0V13.125H4.37363V8.75H30.6154V13.125H8.74725L8.74725 386.375H30.6154V390.75H4.37363Z" fill="white"/>
<path d="M41.1121 390.75V386.375H36.7385V13.125H41.1121V8.75H62.9802V13.125H67.3538V386.375H62.9802V390.75H41.1121ZM45.4857 386.375H58.6066V13.125H45.4857V386.375Z" fill="white"/>
<path d="M73.4769 390.75V8.75H99.7187V13.125H104.092V390.75H95.345V13.125H90.9714V390.75H82.2242V13.125H77.8505V390.75H73.4769Z" fill="white"/>
<path d="M123.336 4.375V0H132.084V4.375H123.336ZM114.589 390.75V386.375H123.336L123.336 13.125H118.963V8.75H132.084V386.375H140.831V390.75H114.589Z" fill="white"/>
<path d="M146.954 390.75V8.75H173.196V13.125H177.569V390.75H168.822V13.125H155.701V390.75H146.954Z" fill="white"/>
<path d="M188.066 395.125V390.75H205.56V386.375H188.066V382H183.692V13.125H188.066V8.75H214.308V390.75H209.934V395.125H188.066ZM192.44 382H205.56V13.125H192.44V382Z" fill="white"/>
<path d="M257.169 390.75V386.375H279.037V382H261.543V377.625H257.169V13.125H261.543V8.75H283.411V13.125H265.916V377.625H283.411V382H287.785V386.375H283.411V390.75H257.169Z" fill="white"/>
<path d="M298.281 390.75V386.375H293.908V13.125H298.281V8.75H320.149V13.125H324.523V386.375H320.149V390.75H298.281ZM302.655 386.375H315.776V13.125H302.655V386.375Z" fill="white"/>
<path d="M335.02 390.75V386.375H330.646V13.125H335.02V8.75H356.888V13.125H361.262V386.375H356.888V390.75H335.02ZM339.393 386.375H352.514V13.125H339.393V386.375Z" fill="white"/>
<path d="M367.385 390.75V8.75H393.626V13.125H398V390.75H389.253V13.125H376.132V390.75H367.385Z" fill="white"/>
<path d="M4.37363 458.75V454.375H0V441.25H4.37363V436.875H30.6154V441.25H8.74725V454.375H30.6154V458.75H4.37363Z" fill="white"/>
<path d="M41.1121 458.75V454.375H36.7385V441.25H41.1121V436.875H62.9802V441.25H67.3538V454.375H62.9802V458.75H41.1121ZM45.4857 454.375H58.6066V441.25H45.4857V454.375Z" fill="white"/>
<path d="M73.4769 458.75V436.875H99.7187V441.25H104.092V458.75H95.345V441.25H90.9714V458.75H82.2242V441.25H77.8505V458.75H73.4769Z" fill="white"/>
<path d="M123.336 432.5V428.125H132.084V432.5H123.336ZM114.589 458.75V454.375H123.336V441.25H118.963V436.875H132.084V454.375H140.831V458.75H114.589Z" fill="white"/>
<path d="M146.954 458.75V436.875H173.196V441.25H177.569V458.75H168.822V441.25H155.701V458.75H146.954Z" fill="white"/>
<path d="M188.066 463.125V458.75H205.56V454.375H188.066V450H183.692V441.25H188.066V436.875H214.308V458.75H209.934V463.125H188.066ZM192.44 450H205.56V441.25H192.44V450Z" fill="white"/>
<path d="M257.169 458.75V454.375H279.037V450H261.543V445.625H257.169V441.25H261.543V436.875H283.411V441.25H265.916V445.625H283.411V450H287.785V454.375H283.411V458.75H257.169Z" fill="white"/>
<path d="M298.281 458.75V454.375H293.908V441.25H298.281V436.875H320.149V441.25H324.523V454.375H320.149V458.75H298.281ZM302.655 454.375H315.776V441.25H302.655V454.375Z" fill="white"/>
<path d="M335.02 458.75V454.375H330.646V441.25H335.02V436.875H356.888V441.25H361.262V454.375H356.888V458.75H335.02ZM339.393 454.375H352.514V441.25H339.393V454.375Z" fill="white"/>
<path d="M367.385 458.75V436.875H393.626V441.25H398V458.75H389.253V441.25H376.132V458.75H367.385Z" fill="white"/>
<path d="M4.37363 526.75V522.375H0V502.25H4.37363V497.875H30.6154V502.25H8.74725V522.375H30.6154V526.75H4.37363Z" fill="white"/>
<path d="M41.1121 526.75V522.375H36.7385V502.25H41.1121V497.875H62.9802V502.25H67.3538V522.375H62.9802V526.75H41.1121ZM45.4857 522.375H58.6066V502.25H45.4857V522.375Z" fill="white"/>
<path d="M73.4769 526.75V497.875H99.7187V502.25H104.092V526.75H95.345V502.25H90.9714V526.75H82.2242V502.25H77.8505V526.75H73.4769Z" fill="white"/>
<path d="M123.336 493.5V489.125H132.084V493.5H123.336ZM114.589 526.75V522.375H123.336V502.25H118.963V497.875H132.084V522.375H140.831V526.75H114.589Z" fill="white"/>
<path d="M146.954 526.75V497.875H173.196V502.25H177.569V526.75H168.822V502.25H155.701V526.75H146.954Z" fill="white"/>
<path d="M188.066 531.125V526.75H205.56V522.375H188.066V518H183.692V502.25H188.066V497.875H214.308V526.75H209.934V531.125H188.066ZM192.44 518H205.56V502.25H192.44V518Z" fill="white"/>
<path d="M257.169 526.75V522.375H279.037V518H261.543V513.625H257.169V502.25H261.543V497.875H283.411V502.25H265.916V513.625H283.411V518H287.785V522.375H283.411V526.75H257.169Z" fill="white"/>
<path d="M298.281 526.75V522.375H293.908V502.25H298.281V497.875H320.149V502.25H324.523V522.375H320.149V526.75H298.281ZM302.655 522.375H315.776V502.25H302.655V522.375Z" fill="white"/>
<path d="M335.02 526.75V522.375H330.646V502.25H335.02V497.875H356.888V502.25H361.262V522.375H356.888V526.75H335.02ZM339.393 522.375H352.514V502.25H339.393V522.375Z" fill="white"/>
<path d="M367.385 526.75V497.875H393.626V502.25H398V526.75H389.253V502.25H376.132V526.75H367.385Z" fill="white"/>
<path d="M4.37363 594.75V590.375H0V577.25H4.37363V572.875H30.6154V577.25H8.74725V590.375H30.6154V594.75H4.37363Z" fill="white"/>
<path d="M41.1121 594.75V590.375H36.7385V577.25H41.1121V572.875H62.9802V577.25H67.3538V590.375H62.9802V594.75H41.1121ZM45.4857 590.375H58.6066V577.25H45.4857V590.375Z" fill="white"/>
<path d="M73.4769 594.75V572.875H99.7187V577.25H104.092V594.75H95.345V577.25H90.9714V594.75H82.2242V577.25H77.8505V594.75H73.4769Z" fill="white"/>
<path d="M123.336 568.5V564.125H132.084V568.5H123.336ZM114.589 594.75V590.375H123.336V577.25H118.963V572.875H132.084V590.375H140.831V594.75H114.589Z" fill="white"/>
<path d="M146.954 594.75V572.875H173.196V577.25H177.569V594.75H168.822V577.25H155.701V594.75H146.954Z" fill="white"/>
<path d="M188.066 599.125V594.75H205.56V590.375H188.066V586H183.692V577.25H188.066V572.875H214.308V594.75H209.934V599.125H188.066ZM192.44 586H205.56V577.25H192.44V586Z" fill="white"/>
<path d="M257.169 594.75V590.375H279.037V586H261.543V581.625H257.169V577.25H261.543V572.875H283.411V577.25H265.916V581.625H283.411V586H287.785V590.375H283.411V594.75H257.169Z" fill="white"/>
<path d="M298.281 594.75V590.375H293.908V577.25H298.281V572.875H320.149V577.25H324.523V590.375H320.149V594.75H298.281ZM302.655 590.375H315.776V577.25H302.655V590.375Z" fill="white"/>
<path d="M335.02 594.75V590.375H330.646V577.25H335.02V572.875H356.888V577.25H361.262V590.375H356.888V594.75H335.02ZM339.393 590.375H352.514V577.25H339.393V590.375Z" fill="white"/>
<path d="M367.385 594.75V572.875H393.626V577.25H398V594.75H389.253V577.25H376.132V594.75H367.385Z" fill="white"/>
</g>
</svg>
