<svg width="398" height="642" viewBox="0 0 398 642" fill="none" xmlns="http://www.w3.org/2000/svg">
<g opacity="0.44">
<path d="M4.37363 36.3476V32.0205H0V12.9813H4.37363V8.65418H30.6154V12.9813H8.74725V32.0205H30.6154V36.3476H4.37363Z" fill="white"/>
<path d="M41.1121 36.3476V32.0205H36.7385V12.9813H41.1121V8.65418H62.9802V12.9813H67.3538V32.0205H62.9802V36.3476H41.1121ZM45.4857 32.0205H58.6066V12.9813H45.4857V32.0205Z" fill="white"/>
<path d="M73.4769 36.3476V8.65418H99.7187V12.9813H104.092V36.3476H95.345V12.9813H90.9714V36.3476H82.2242V12.9813H77.8505V36.3476H73.4769Z" fill="white"/>
<path d="M123.336 4.32709V0H132.084V4.32709H123.336ZM114.589 36.3476V32.0205H123.336V12.9813H118.963V8.65418H132.084V32.0205H140.831V36.3476H114.589Z" fill="white"/>
<path d="M146.954 36.3476V8.65418H173.196V12.9813H177.569V36.3476H168.822V12.9813H155.701V36.3476H146.954Z" fill="white"/>
<path d="M188.066 40.6747V36.3476H205.56V32.0205H188.066V27.6934H183.692V12.9813H188.066V8.65418H214.308V36.3476H209.934V40.6747H188.066ZM192.44 27.6934H205.56V12.9813H192.44V27.6934Z" fill="white"/>
<path d="M257.169 36.3476V32.0205H279.037V27.6934H261.543V17.3084H257.169V12.9813H261.543V8.65418H283.411V12.9813H265.916V17.3084H283.411V27.6934H287.785V32.0205H283.411V36.3476H257.169Z" fill="white"/>
<path d="M298.281 36.3476V32.0205H293.908V12.9813H298.281V8.65418H320.149V12.9813H324.523V32.0205H320.149V36.3476H298.281ZM302.655 32.0205H315.776V12.9813H302.655V32.0205Z" fill="white"/>
<path d="M335.02 36.3476V32.0205H330.646V12.9813H335.02V8.65418H356.888V12.9813H361.262V32.0205H356.888V36.3476H335.02ZM339.393 32.0205H352.514V12.9813H339.393V32.0205Z" fill="white"/>
<path d="M367.385 36.3476V8.65418H393.626V12.9813H398V36.3476H389.253V12.9813H376.132V36.3476H367.385Z" fill="white"/>
<path d="M4.37363 98.9384V94.5411H0V81.3493H4.37363V76.9521H30.6154V81.3493H8.74725V94.5411H30.6154V98.9384H4.37363Z" fill="white"/>
<path d="M41.1121 98.9384V94.5411H36.7385V81.3493H41.1121V76.9521H62.9802V81.3493H67.3538V94.5411H62.9802V98.9384H41.1121ZM45.4857 94.5411H58.6066V81.3493H45.4857V94.5411Z" fill="white"/>
<path d="M73.4769 98.9384V76.9521H99.7187V81.3493H104.092V98.9384H95.345V81.3493H90.9714V98.9384H82.2242V81.3493H77.8505V98.9384H73.4769Z" fill="white"/>
<path d="M123.336 72.5548V68.1575H132.084V72.5548H123.336ZM114.589 98.9384V94.5411H123.336V81.3493H118.963V76.9521H132.084V94.5411H140.831V98.9384H114.589Z" fill="white"/>
<path d="M146.954 98.9384V76.9521H173.196V81.3493H177.569V98.9384H168.822V81.3493H155.701V98.9384H146.954Z" fill="white"/>
<path d="M188.066 103.336V98.9384H205.56V94.5411H188.066V90.1438H183.692V81.3493H188.066V76.9521H214.308V98.9384H209.934V103.336H188.066ZM192.44 90.1438H205.56V81.3493H192.44V90.1438Z" fill="white"/>
<path d="M257.169 98.9384V94.5411H279.037V90.1438H261.543V85.7466H257.169V81.3493H261.543V76.9521H283.411V81.3493H265.916V85.7466H283.411V90.1438H287.785V94.5411H283.411V98.9384H257.169Z" fill="white"/>
<path d="M298.281 98.9384V94.5411H293.908V81.3493H298.281V76.9521H320.149V81.3493H324.523V94.5411H320.149V98.9384H298.281ZM302.655 94.5411H315.776V81.3493H302.655V94.5411Z" fill="white"/>
<path d="M335.02 98.9384V94.5411H330.646V81.3493H335.02V76.9521H356.888V81.3493H361.262V94.5411H356.888V98.9384H335.02ZM339.393 94.5411H352.514V81.3493H339.393V94.5411Z" fill="white"/>
<path d="M367.385 98.9384V76.9521H393.626V81.3493H398V98.9384H389.253V81.3493H376.132V98.9384H367.385Z" fill="white"/>
<path d="M4.37362 637.628V633.255H0V149.432H4.37363V145.06H30.6154V149.432H8.74725L8.74725 633.255H30.6154V637.628H4.37362Z" fill="white"/>
<path d="M41.1121 637.628V633.255H36.7384V149.432H41.1121V145.06H62.9802V149.432H67.3538V633.255H62.9802V637.628H41.1121ZM45.4857 633.255H58.6066V149.432H45.4857V633.255Z" fill="white"/>
<path d="M73.4769 637.628V145.06H99.7186V149.432H104.092V637.628H95.345V149.432H90.9714V637.628H82.2241V149.432H77.8505V637.628H73.4769Z" fill="white"/>
<path d="M123.336 140.687V136.315H132.083V140.687H123.336ZM114.589 637.628V633.255H123.336L123.336 149.432H118.963V145.06H132.083V633.255H140.831V637.628H114.589Z" fill="white"/>
<path d="M146.954 637.628V145.06H173.196V149.432H177.569V637.628H168.822V149.432H155.701V637.628H146.954Z" fill="white"/>
<path d="M188.066 642V637.628H205.56V633.255H188.066V158.176H183.692V149.432H188.066V145.06H214.308V637.628H209.934V642H188.066ZM192.439 158.176H205.56V149.432H192.439V158.176Z" fill="white"/>
<path d="M257.169 637.628V633.255H279.037V158.176H261.543V153.804H257.169V149.432H261.543V145.06H283.411V149.432H265.916V153.804H283.411V158.176H287.785V633.255H283.411V637.628H257.169Z" fill="white"/>
<path d="M298.281 637.628V633.255H293.908V149.432H298.281V145.06H320.149V149.432H324.523V633.255H320.149V637.628H298.281ZM302.655 633.255H315.776V149.432H302.655V633.255Z" fill="white"/>
<path d="M335.02 637.628V633.255H330.646V149.432H335.02V145.06H356.888V149.432H361.261V633.255H356.888V637.628H335.02ZM339.393 633.255H352.514V149.432H339.393V633.255Z" fill="white"/>
<path d="M367.384 637.628V145.06H393.626V149.432H398V637.628H389.253V149.432H376.132V637.628H367.384Z" fill="white"/>
</g>
</svg>
