<svg width="65" height="80" viewBox="0 0 65 80" fill="none" xmlns="http://www.w3.org/2000/svg">
<path fill-rule="evenodd" clip-rule="evenodd" d="M32.0616 5.52868C25.8324 6.51613 10.5693 10.7223 10.9544 28.3136C11.0885 34.4382 11.6243 34.6799 10.9544 38.3657C10.2845 42.0515 8.1601 43.1585 7.10736 43.8466C5.27333 45.0455 1.7689 47.0776 0.903246 48.7529C-1.43403 53.2764 1.06974 56.8102 4.92527 56.4596C6.394 56.326 9.20692 55.3797 10.653 54.3172C11.0195 54.0479 11.3522 53.8034 11.6344 53.6115C11.5989 53.9859 12.2992 55.4544 11.2943 59.1401C10.2895 62.8259 9.7163 64.2082 8.78215 66.3442C8.11223 68.778 6.59998 72.543 9.44711 75.2236C10.9963 76.6822 14.648 76.7065 17.1537 74.8885C20.2856 72.6162 23.3497 68.187 24.7324 66.1879C25.0395 66.4656 25.4077 66.6898 25.8426 66.8507C25.7947 67.2426 25.7174 67.7816 25.6288 68.3997C25.3434 70.39 24.9406 73.1997 25.0252 74.5534C25.1926 77.234 26.3502 79.1684 28.3747 79.7471C32.0567 80.9198 36.0787 77.7366 37.7535 75.8937C39.1295 74.3797 40.7195 71.7055 41.603 70.03C41.9214 70.2228 42.1682 70.3299 42.5882 70.4581C43.4955 70.7427 49.7147 72.6935 56.9207 55.7223C66.7293 32.6216 65.7276 20.4101 63.5651 13.6505C59.2916 0.291848 44.515 -2.74789 36.0804 2.29767C34.4346 3.28219 33.3015 4.22963 32.0616 5.52868ZM29.377 8.71186C26.5429 12.9137 25.6995 17.9287 25.8848 25.3154C26.0152 30.5148 25.8848 32.6374 21.1529 36.2988C18.3269 38.4855 16.0689 41.4638 17.1513 43.8466C18.1624 46.0724 22.1249 45.6107 24.0591 44.9332C26.23 44.1728 28.8679 43.2489 32.8529 44.0962C32.8529 44.0962 28.8901 44.2036 26.7732 46.9142C26.8669 48.3058 26.9889 50.9776 24.475 57.7299C23.5625 60.1808 23.1803 62.3233 23.5153 63.896C21.8909 66.1235 20.1003 69.0902 17.821 71.3703C14.304 74.8885 10.8205 74.9678 10.122 71.8729C9.42346 68.778 13.0585 63.3934 14.1415 57.4648C14.5393 55.2868 14.6389 51.4335 13.1343 50.7634C12.5263 50.4926 11.4276 51.4502 10.208 52.3841C7.98314 54.0879 3.41779 55.7348 2.5804 52.9413C1.74301 50.1478 4.03563 48.4179 6.26867 47.0776C6.82264 46.7451 13.1316 43.5593 13.8016 39.0358C14.4715 34.5124 13.8016 32.7646 13.8016 27.0208C13.8016 21.277 15.9837 17.0043 18.8308 14.2405C21.678 11.4768 25.2125 9.72173 29.377 8.71186ZM40.0571 68.4739C39.3299 67.0628 39.4945 65.2676 39.8447 63.896C40.038 63.1388 40.4499 62.1536 40.8933 61.0928C41.7457 59.0539 42.7148 56.7355 42.4738 55.2197C44.6446 52.2557 49.1178 51.348 50.4685 51.4387C49.5797 50.4635 43.7068 51.0286 40.8807 53.8533C39.6587 55.0747 37.5899 57.8177 36.5858 59.149C34.2044 62.2827 30.7333 66.8527 27.5278 67.0936C27.4633 67.6205 27.3813 68.1881 27.296 68.778C26.7024 72.8854 25.9528 78.0717 29.882 78.0717C32.3942 78.0717 35.2413 76.2288 36.9161 73.8833C38.5511 71.5936 39.388 70.1022 40.0571 68.4739ZM52.1641 27.0208C53.6451 26.8588 54.4945 23.2478 54.0614 18.9554C53.6283 14.663 52.0766 11.3147 50.5957 11.4768C49.1147 11.6388 48.2653 15.2498 48.6984 19.5422C49.1315 23.8345 50.6832 27.1828 52.1641 27.0208ZM59.6893 25.021C60.9051 24.888 61.6025 21.9234 61.2469 18.3995C60.8913 14.8756 59.6174 12.1268 58.4016 12.2598C57.1858 12.3928 56.4884 15.3573 56.844 18.8812C57.1996 22.4051 58.4734 25.154 59.6893 25.021Z" fill="white"/>
</svg>
