<svg width="241" height="54" viewBox="0 0 241 54" fill="none" xmlns="http://www.w3.org/2000/svg">
<path d="M128.652 18.8168C129.364 20.3446 129.72 22.0679 129.72 23.9866C128.581 24.1643 127.316 24.2709 125.927 24.3064C124.574 24.3419 123.292 24.2353 122.081 23.9866C122.188 23.5602 122.134 23.1339 121.921 22.7075C121.743 22.2811 121.458 21.908 121.066 21.5882C120.71 21.2684 120.282 21.0375 119.784 20.8954C119.321 20.7177 118.858 20.6466 118.395 20.6822C117.576 20.8243 116.952 21.1441 116.525 21.6415C116.133 22.1034 115.937 22.6187 115.937 23.1872C115.937 23.7557 116.151 24.3242 116.578 24.8927C117.006 25.4612 117.629 25.8876 118.448 26.1718C120.443 26.4561 122.312 26.8469 124.058 27.3444C125.803 27.8063 127.085 28.5702 127.904 29.6362C128.687 30.9153 129.168 32.23 129.346 33.5802C129.524 34.8949 129.275 36.5293 128.598 38.4836C127.779 40.2247 126.497 41.4683 124.752 42.2144C123.007 42.9606 121.101 43.3159 119.036 43.2804C117.219 43.3515 115.581 43.1916 114.121 42.8007C112.661 42.4099 111.396 41.8236 110.328 41.0419C109.295 40.2602 108.476 39.3008 107.87 38.1638C107.301 37.0268 107.016 35.7476 107.016 34.3264V34.0599C108.191 33.9178 109.527 33.8822 111.022 33.9533C112.518 33.9888 113.818 34.0066 114.922 34.0066C114.958 34.8238 115.332 35.4989 116.044 36.0319C116.792 36.5293 117.576 36.8314 118.395 36.938C119.214 37.009 119.962 36.8491 120.638 36.4583C121.315 36.0674 121.636 35.3568 121.6 34.3264C121.707 33.4736 121.511 32.834 121.012 32.4077C120.514 31.9813 119.855 31.6615 119.036 31.4483C118.217 31.1996 117.291 30.9864 116.258 30.8087C115.225 30.6311 114.21 30.329 113.213 29.9027C111.218 29.2276 109.758 28.1794 108.832 26.7581C107.942 25.3013 107.514 23.809 107.55 22.2811C107.621 20.7177 108.12 19.2787 109.046 17.964C110.007 16.6493 111.361 15.761 113.106 15.2991C113.783 15.1214 114.602 14.9793 115.563 14.8727C116.561 14.7661 117.611 14.7128 118.715 14.7128C119.819 14.7128 120.923 14.7839 122.027 14.926C123.132 15.0326 124.147 15.1925 125.073 15.4057C126.746 16.1163 127.94 17.2534 128.652 18.8168Z" fill="white"/>
<path d="M139.454 51.0086C139.454 51.3994 139.436 51.9501 139.4 52.6608V53.247C139.4 53.2826 139.151 53.3181 138.652 53.3536C138.189 53.4247 137.602 53.4602 136.889 53.4602C136.213 53.4958 135.483 53.4958 134.699 53.4602C133.916 53.4602 133.239 53.4069 132.669 53.3003V49.7827C132.669 46.8336 132.633 43.8844 132.562 40.9353C132.491 37.9862 132.42 35.0903 132.348 32.2478C132.313 29.3697 132.277 26.5627 132.242 23.8267C132.242 21.0553 132.277 18.3904 132.348 15.8321C133.453 15.8321 134.663 15.8143 135.981 15.7788C137.299 15.7077 138.492 15.7433 139.561 15.8854C139.596 15.9564 139.614 16.0808 139.614 16.2585C139.614 16.6138 139.614 16.898 139.614 17.1112C139.65 17.3244 139.667 17.6264 139.667 18.0173C139.739 18.1949 139.81 18.3371 139.881 18.4437C139.988 18.5147 140.095 18.4437 140.202 18.2305C140.736 17.1645 141.448 16.4894 142.339 16.2052C143.229 15.8854 144.173 15.7966 145.17 15.9387C147.2 16.0808 148.803 16.6138 149.978 17.5376C151.153 18.4259 152.026 19.5807 152.596 21.002C153.201 22.3877 153.593 23.9511 153.771 25.6922C153.949 27.4332 154.074 29.192 154.145 30.9686C154.145 32.2122 154.056 33.4203 153.878 34.5929C153.735 35.7654 153.486 36.8491 153.13 37.844C152.809 38.8034 152.364 39.6384 151.794 40.349C151.26 41.0241 150.601 41.5038 149.818 41.7881C148.856 42.1434 147.788 42.3566 146.612 42.4276C145.473 42.5342 144.386 42.5342 143.354 42.4276C142.321 42.3566 141.448 42.1967 140.736 41.9479C140.024 41.6992 139.632 41.415 139.561 41.0952C139.596 42.7652 139.614 44.1154 139.614 45.1458C139.614 46.1762 139.614 46.9935 139.614 47.5975C139.614 48.2371 139.596 48.7167 139.561 49.0365C139.561 49.3919 139.543 49.7116 139.507 49.9959C139.507 50.3157 139.489 50.6532 139.454 51.0086ZM146.078 35.3923C146.969 34.7528 147.503 33.8112 147.681 32.5676C147.859 32.0701 147.966 31.5549 148.001 31.0219C148.037 30.4889 148.055 29.9737 148.055 29.4763C148.055 28.588 147.948 27.7352 147.734 26.918C147.521 26.0652 147.2 25.3191 146.773 24.6795C146.345 24.0044 145.829 23.4714 145.223 23.0806C144.618 22.6897 143.941 22.4943 143.193 22.4943C142.267 22.4943 141.555 22.6897 141.056 23.0806C140.558 23.4714 140.166 24.0044 139.881 24.6795C139.632 25.3546 139.472 26.1718 139.4 27.1312C139.365 28.0905 139.347 29.121 139.347 30.2225C139.347 31.6082 139.365 32.7097 139.4 33.5269C139.472 34.3086 139.614 34.9127 139.828 35.339C140.041 35.7654 140.362 36.0497 140.789 36.1918C141.252 36.2984 141.858 36.3517 142.606 36.3517C144.066 36.3517 145.223 36.0319 146.078 35.3923Z" fill="white"/>
<path d="M160.762 15.6189C161.582 15.6544 162.561 15.6544 163.701 15.6189H164.609V15.7788C164.573 20.0781 164.484 24.4663 164.342 28.9433C164.235 33.4203 164.306 37.8085 164.555 42.1078C164.377 42.321 163.932 42.4276 163.22 42.4276C162.507 42.4632 161.724 42.4632 160.869 42.4276C160.05 42.4276 159.266 42.4099 158.519 42.3743C157.771 42.3388 157.272 42.3566 157.023 42.4276C157.201 40.1891 157.272 37.9151 157.236 35.6055C157.236 33.296 157.201 31.0042 157.13 28.7301C157.058 26.4561 157.023 24.2176 157.023 22.0146C157.023 19.7761 157.13 17.6087 157.343 15.5123V15.459C157.486 15.4235 157.717 15.4235 158.038 15.459C158.394 15.4945 158.661 15.5123 158.839 15.5123C159.302 15.5478 159.943 15.5834 160.762 15.6189ZM157.183 8.15722C157.112 7.0202 157.094 5.63446 157.13 4L164.395 4.15989C164.395 4.37308 164.395 4.76393 164.395 5.33244C164.431 5.86542 164.449 6.46946 164.449 7.14456C164.484 7.78413 164.502 8.45924 164.502 9.16987C164.538 9.84498 164.555 10.449 164.555 10.982C164.413 11.1952 164.075 11.3373 163.54 11.4084C163.042 11.4794 162.436 11.515 161.724 11.515C161.047 11.4794 160.317 11.4439 159.534 11.4084C158.75 11.3373 158.02 11.3195 157.343 11.3551C157.343 10.3247 157.29 9.2587 157.183 8.15722Z" fill="white"/>
<path d="M175.509 17.1112C175.544 17.2178 175.562 17.3955 175.562 17.6442C175.705 17.5731 176.025 17.431 176.524 17.2178C177.058 17.0046 177.574 16.8092 178.073 16.6315C178.75 16.4184 179.515 16.2585 180.37 16.1519C181.225 16.0097 182.026 15.9209 182.774 15.8854C183.522 15.8498 184.145 15.8498 184.644 15.8854C185.178 15.8854 185.445 15.9031 185.445 15.9387C185.445 17.1468 185.428 18.2127 185.392 19.1365C185.392 20.0604 185.392 20.8954 185.392 21.6415C185.392 22.3522 185.392 23.0095 185.392 23.6135C185.392 24.2176 185.41 24.7861 185.445 25.3191L184.965 25.1592C184.786 25.0881 184.591 25.0348 184.377 24.9993C184.199 24.9282 184.021 24.8572 183.843 24.7861C183.415 24.6795 182.97 24.5907 182.507 24.5196C182.08 24.4485 181.848 24.413 181.813 24.413C180.851 24.3064 179.961 24.2531 179.141 24.2531C178.358 24.2531 177.663 24.3775 177.058 24.6262C176.488 24.8749 176.043 25.2658 175.722 25.7987C175.402 26.3317 175.259 27.0957 175.295 28.0905C175.331 29.3342 175.366 30.5067 175.402 31.6082C175.437 32.7097 175.455 33.8289 175.455 34.9659C175.455 36.0674 175.455 37.2045 175.455 38.377C175.491 39.514 175.509 40.7399 175.509 42.0545V42.2677C174.903 42.4454 174.351 42.552 173.853 42.5875C173.354 42.623 172.838 42.623 172.303 42.5875C171.769 42.5875 171.181 42.5698 170.54 42.5342C169.935 42.4987 169.205 42.5165 168.35 42.5875C168.35 38.2171 168.297 33.8467 168.19 29.4763C168.119 25.1059 168.154 20.5756 168.297 15.8854C168.724 15.9209 169.08 15.9564 169.365 15.992C169.65 15.992 169.917 15.992 170.166 15.992C170.416 15.992 170.683 15.992 170.968 15.992C171.253 15.9564 171.609 15.9209 172.036 15.8854C172.179 15.8854 172.428 15.8676 172.784 15.8321C173.176 15.7966 173.568 15.761 173.959 15.7255C174.387 15.69 174.743 15.69 175.028 15.7255C175.348 15.7255 175.509 15.761 175.509 15.8321C175.509 16.1163 175.509 16.3295 175.509 16.4717C175.509 16.6138 175.509 16.7381 175.509 16.8447C175.509 16.9158 175.509 17.0046 175.509 17.1112Z" fill="white"/>
<path d="M191.491 15.6189C192.31 15.6544 193.289 15.6544 194.429 15.6189H195.337V15.7788C195.302 20.0781 195.213 24.4663 195.07 28.9433C194.963 33.4203 195.035 37.8085 195.284 42.1078C195.106 42.321 194.661 42.4276 193.948 42.4276C193.236 42.4632 192.453 42.4632 191.598 42.4276C190.779 42.4276 189.995 42.4099 189.247 42.3743C188.499 42.3388 188.001 42.3566 187.751 42.4276C187.929 40.1891 188.001 37.9151 187.965 35.6055C187.965 33.296 187.929 31.0042 187.858 28.7301C187.787 26.4561 187.751 24.2176 187.751 22.0146C187.751 19.7761 187.858 17.6087 188.072 15.5123V15.459C188.214 15.4235 188.446 15.4235 188.766 15.459C189.123 15.4945 189.39 15.5123 189.568 15.5123C190.031 15.5478 190.672 15.5834 191.491 15.6189ZM187.912 8.15722C187.84 7.0202 187.823 5.63446 187.858 4L195.124 4.15989C195.124 4.37308 195.124 4.76393 195.124 5.33244C195.159 5.86542 195.177 6.46946 195.177 7.14456C195.213 7.78413 195.231 8.45924 195.231 9.16987C195.266 9.84498 195.284 10.449 195.284 10.982C195.141 11.1952 194.803 11.3373 194.269 11.4084C193.77 11.4794 193.165 11.515 192.453 11.515C191.776 11.4794 191.046 11.4439 190.262 11.4084C189.479 11.3373 188.749 11.3195 188.072 11.3551C188.072 10.3247 188.018 9.2587 187.912 8.15722Z" fill="white"/>
<path d="M206.718 6.02531C207.324 6.06084 207.929 6.04308 208.534 5.97201V13.1139C208.534 13.5758 208.534 14.0555 208.534 14.5529C208.57 15.0504 208.588 15.5656 208.588 16.0986C209.692 16.063 210.849 16.0097 212.06 15.9387C213.307 15.8676 214.838 15.7788 216.655 15.6722C216.904 15.9564 217.047 16.3828 217.082 16.9513C217.118 17.4843 217.118 18.0706 217.082 18.7102C217.047 19.3497 216.993 20.0071 216.922 20.6822C216.886 21.3217 216.904 21.8725 216.975 22.3344H208.695C208.695 24.2531 208.695 26.1363 208.695 27.984C208.695 29.7961 208.713 31.5016 208.748 33.1005C209.104 33.598 209.621 33.9888 210.297 34.2731C210.974 34.5573 211.704 34.7883 212.488 34.9659C213.271 35.1081 214.055 35.1969 214.838 35.2324C215.658 35.268 216.37 35.268 216.975 35.2324C217.047 35.7299 217.118 36.2806 217.189 36.8847C217.26 37.4887 217.314 38.1105 217.349 38.7501C217.385 39.3897 217.367 40.0292 217.296 40.6688C217.26 41.3084 217.153 41.8946 216.975 42.4276C215.551 42.4987 214.073 42.4987 212.541 42.4276C211.01 42.321 209.567 42.1078 208.214 41.7881C206.861 41.4683 205.65 40.9886 204.581 40.349C203.548 39.7094 202.8 38.8389 202.337 37.7374C201.874 35.0015 201.607 32.4254 201.536 30.0093C201.465 27.5576 201.447 25.0348 201.483 22.441C200.913 22.4765 200.307 22.4943 199.666 22.4943C199.061 22.4943 198.384 22.4943 197.636 22.4943L197.796 15.992C198.509 16.0275 199.168 16.0453 199.773 16.0453C200.414 16.0453 201.02 16.0453 201.589 16.0453C201.589 15.2636 201.572 14.4286 201.536 13.5403C201.5 12.6165 201.483 11.6926 201.483 10.7688C201.483 9.84498 201.483 8.95668 201.483 8.10392C201.518 7.25116 201.572 6.48722 201.643 5.81212C202.106 5.74106 202.605 5.72329 203.139 5.75882C203.709 5.79435 204.296 5.84765 204.902 5.91871C205.507 5.95425 206.113 5.98978 206.718 6.02531Z" fill="white"/>
<path d="M239.932 18.8168C240.644 20.3446 241.001 22.0679 241.001 23.9866C239.861 24.1643 238.597 24.2709 237.208 24.3064C235.854 24.3419 234.572 24.2353 233.361 23.9866C233.468 23.5602 233.414 23.1339 233.201 22.7075C233.023 22.2811 232.738 21.908 232.346 21.5882C231.99 21.2684 231.562 21.0375 231.064 20.8954C230.601 20.7177 230.138 20.6466 229.675 20.6822C228.856 20.8243 228.232 21.1441 227.805 21.6415C227.413 22.1034 227.217 22.6187 227.217 23.1872C227.217 23.7557 227.431 24.3242 227.859 24.8927C228.286 25.4612 228.909 25.8876 229.728 26.1718C231.723 26.4561 233.593 26.8469 235.338 27.3444C237.083 27.8063 238.365 28.5702 239.184 29.6362C239.968 30.9153 240.448 32.23 240.627 33.5802C240.805 34.8949 240.555 36.5293 239.879 38.4836C239.059 40.2247 237.777 41.4683 236.032 42.2144C234.287 42.9606 232.382 43.3159 230.316 43.2804C228.5 43.3515 226.861 43.1916 225.401 42.8007C223.941 42.4099 222.677 41.8236 221.608 41.0419C220.575 40.2602 219.756 39.3008 219.151 38.1638C218.581 37.0268 218.296 35.7476 218.296 34.3264V34.0599C219.471 33.9178 220.807 33.8822 222.303 33.9533C223.798 33.9888 225.098 34.0066 226.202 34.0066C226.238 34.8238 226.612 35.4989 227.324 36.0319C228.072 36.5293 228.856 36.8314 229.675 36.938C230.494 37.009 231.242 36.8491 231.919 36.4583C232.595 36.0674 232.916 35.3568 232.88 34.3264C232.987 33.4736 232.791 32.834 232.293 32.4077C231.794 31.9813 231.135 31.6615 230.316 31.4483C229.497 31.1996 228.571 30.9864 227.538 30.8087C226.505 30.6311 225.49 30.329 224.493 29.9027C222.498 29.2276 221.038 28.1794 220.112 26.7581C219.222 25.3013 218.794 23.809 218.83 22.2811C218.901 20.7177 219.4 19.2787 220.326 17.964C221.288 16.6493 222.641 15.761 224.386 15.2991C225.063 15.1214 225.882 14.9793 226.843 14.8727C227.841 14.7661 228.891 14.7128 229.995 14.7128C231.099 14.7128 232.204 14.7839 233.308 14.926C234.412 15.0326 235.427 15.1925 236.353 15.4057C238.027 16.1163 239.22 17.2534 239.932 18.8168Z" fill="white"/>
<mask id="path-2-outside-1_45_90198" maskUnits="userSpaceOnUse" x="0" y="0" width="97" height="47" fill="black">
<rect fill="white" width="97" height="47"/>
<path d="M13.0754 6.02776C13.6805 6.06333 14.2855 6.04555 14.8905 5.9744V13.1249C14.8905 13.5874 14.8905 14.0677 14.8905 14.5657C14.9261 15.0638 14.9439 15.5796 14.9439 16.1132C16.0472 16.0776 17.2039 16.0243 18.414 15.9531C19.6596 15.882 21.19 15.793 23.0051 15.6863C23.2542 15.9709 23.3965 16.3978 23.4321 16.967C23.4677 17.5006 23.4677 18.0876 23.4321 18.7279C23.3965 19.3683 23.3432 20.0264 23.272 20.7023C23.2364 21.3427 23.2542 21.8941 23.3254 22.3566H15.0507C15.0507 24.2776 15.0507 26.1631 15.0507 28.013C15.0507 29.8273 15.0685 31.5349 15.1041 33.1357C15.46 33.6338 15.976 34.0251 16.6522 34.3097C17.3285 34.5943 18.0581 34.8255 18.841 35.0034C19.624 35.1457 20.407 35.2346 21.19 35.2702C22.0085 35.3058 22.7203 35.3058 23.3254 35.2702C23.3966 35.7683 23.4677 36.3197 23.5389 36.9244C23.6101 37.5292 23.6635 38.1518 23.6991 38.7921C23.7347 39.4325 23.7169 40.0728 23.6457 40.7132C23.6101 41.3535 23.5033 41.9405 23.3254 42.4741C21.9018 42.5453 20.4248 42.5453 18.8944 42.4741C17.364 42.3674 15.9227 42.1539 14.5702 41.8338C13.2178 41.5136 12.0077 41.0333 10.94 40.393C9.90794 39.7526 9.16055 38.8811 8.69788 37.7782C8.23521 35.039 7.96829 32.4598 7.89711 30.0407C7.82593 27.5861 7.80813 25.0603 7.84372 22.4633C7.27428 22.4989 6.66925 22.5167 6.02863 22.5167C5.4236 22.5167 4.74739 22.5167 4 22.5167L4.16015 16.0065C4.87195 16.0421 5.53037 16.0598 6.1354 16.0598C6.77602 16.0598 7.38105 16.0598 7.95049 16.0598C7.95049 15.2772 7.9327 14.4412 7.89711 13.5518C7.86152 12.6269 7.84372 11.7019 7.84372 10.777C7.84372 9.85205 7.84372 8.96268 7.84372 8.10888C7.87931 7.25509 7.93269 6.49023 8.00387 5.81431C8.46654 5.74316 8.9648 5.72538 9.49865 5.76095C10.0681 5.79652 10.6553 5.84989 11.2604 5.92103C11.8654 5.95661 12.4704 5.99219 13.0754 6.02776Z"/>
<path d="M28.4887 15.8998C29.7699 15.793 30.98 15.8108 32.1189 15.9531C32.368 17.2338 32.6171 18.7102 32.8663 20.3822C33.1154 22.0186 33.3645 23.6906 33.6137 25.3982C33.8984 27.1058 34.2009 28.7422 34.5212 30.3075C34.8415 31.8372 35.1974 33.1357 35.5889 34.203C35.9804 33.1357 36.3007 32.1396 36.5498 31.2147C36.799 30.2897 37.0481 29.2937 37.2972 28.2264C37.5464 27.1236 37.7955 25.8963 38.0446 24.5444C38.3293 23.157 38.6852 21.485 39.1123 19.5284C39.1123 19.5284 39.1479 19.3327 39.2191 18.9414C39.3259 18.5501 39.4148 18.1232 39.486 17.6607C39.5572 17.1982 39.6284 16.7713 39.6996 16.38C39.7707 15.9887 39.8063 15.793 39.8063 15.793C40.4825 15.8642 41.0698 15.882 41.568 15.8464C42.0663 15.8108 42.529 15.7752 42.956 15.7397C43.4187 15.7041 43.8636 15.6863 44.2907 15.6863C44.7177 15.6863 45.1982 15.7397 45.7321 15.8464C45.9812 17.1271 46.2125 18.6034 46.4261 20.2755C46.6752 21.9475 46.9243 23.6373 47.1735 25.3449C47.4582 27.0524 47.7607 28.6889 48.081 30.2542C48.4013 31.8195 48.7572 33.1357 49.1487 34.203C49.5758 33.1713 49.9851 31.8017 50.3765 30.0941C50.768 28.3509 51.1417 26.5722 51.4976 24.7579C51.8535 22.9436 52.1916 21.236 52.5119 19.6351C52.8678 18.0342 53.206 16.8247 53.5263 16.0065C54.6651 16.0065 55.7506 15.9531 56.7828 15.8464C57.8149 15.7397 59.0427 15.7397 60.4663 15.8464C59.7189 17.8742 59.0605 19.9909 58.4911 22.1965C57.9572 24.3665 57.4412 26.59 56.9429 28.8668C56.4446 31.1435 55.9464 33.4381 55.4481 35.7505C54.9499 38.0273 54.3982 40.2863 53.7932 42.5275C53.0814 42.6342 52.3162 42.6875 51.4976 42.6875C50.7147 42.7231 49.8961 42.7231 49.0419 42.6875C48.2234 42.6875 47.4048 42.6698 46.5862 42.6342C45.8032 42.6342 45.0736 42.6342 44.3974 42.6342C44.0771 40.7132 43.739 38.6676 43.3831 36.4975C43.0628 34.3275 42.7069 32.2464 42.3154 30.2542C41.8883 32.2108 41.5502 34.2741 41.3011 36.4442C41.0876 38.5787 40.7317 40.6064 40.2334 42.5275C39.5216 42.6342 38.7208 42.6875 37.8311 42.6875C36.9769 42.7231 36.0872 42.7231 35.1618 42.6875C34.2721 42.6875 33.3823 42.6698 32.4926 42.6342C31.6384 42.6342 30.8732 42.6342 30.197 42.6342C29.4852 38.1873 28.6666 33.6516 27.7413 29.0268C26.816 24.4021 25.7839 19.9909 24.645 15.793C25.9262 15.9353 27.2075 15.9709 28.4887 15.8998Z"/>
<path d="M65.9979 15.6329C66.8165 15.6685 67.7952 15.6685 68.9341 15.6329H69.8416V15.793C69.806 20.0976 69.7171 24.4911 69.5747 28.9735C69.4679 33.4559 69.5391 37.8494 69.7883 42.1539C69.6103 42.3674 69.1654 42.4741 68.4536 42.4741C67.7418 42.5097 66.9588 42.5097 66.1047 42.4741C65.2861 42.4741 64.5031 42.4563 63.7557 42.4207C63.0084 42.3852 62.5101 42.403 62.261 42.4741C62.4389 40.2329 62.5101 37.9561 62.4745 35.6437C62.4745 33.3314 62.4389 31.0368 62.3677 28.76C62.2966 26.4832 62.261 24.242 62.261 22.0364C62.261 19.7952 62.3677 17.6251 62.5813 15.5262V15.4729C62.7236 15.4373 62.955 15.4373 63.2753 15.4729C63.6312 15.5084 63.8981 15.5262 64.0761 15.5262C64.5387 15.5618 65.1793 15.5974 65.9979 15.6329ZM62.4211 8.16225C62.3499 7.02385 62.3321 5.63644 62.3677 4L69.6281 4.16008C69.6281 4.37353 69.6281 4.76486 69.6281 5.33405C69.6637 5.86767 69.6815 6.47244 69.6815 7.14836C69.7171 7.78871 69.7349 8.46463 69.7349 9.17613C69.7705 9.85205 69.7883 10.4568 69.7883 10.9904C69.6459 11.2039 69.3078 11.3462 68.7739 11.4173C68.2757 11.4885 67.6706 11.5241 66.9588 11.5241C66.2826 11.4885 65.553 11.4529 64.7701 11.4173C63.9871 11.3462 63.2575 11.3284 62.5813 11.364C62.5813 10.3323 62.5279 9.26506 62.4211 8.16225Z"/>
<path d="M80.5203 17.3405C80.5203 17.7319 80.5381 18.1765 80.5737 18.6746C80.7516 18.5679 80.9652 18.4434 81.2143 18.3011C81.499 18.1588 81.7304 18.0165 81.9083 17.8742C82.6557 17.3405 83.4921 16.9136 84.4174 16.5935C85.3427 16.2733 86.2859 16.0954 87.2468 16.0598C88.2433 16.0243 89.2043 16.131 90.1296 16.38C91.0549 16.629 91.8913 17.0737 92.6387 17.7141C92.9946 18.0342 93.2615 18.7102 93.4395 19.7418C93.653 20.7379 93.7776 21.9475 93.8132 23.3705C93.8844 24.7934 93.9021 26.3587 93.8665 28.0663C93.8665 29.7383 93.8488 31.4459 93.8132 33.1891C93.7776 34.8967 93.742 36.5509 93.7064 38.1518C93.6708 39.7526 93.6886 41.1578 93.7598 42.3674C92.5141 42.5453 91.393 42.6164 90.3965 42.5808C89.4356 42.5808 88.3323 42.5808 87.0867 42.5808C87.0155 41.7626 86.9799 40.8377 86.9799 39.806C86.9799 38.7743 86.9799 37.7071 86.9799 36.6043C87.0155 35.5015 87.0155 34.3986 86.9799 33.2958C86.9799 32.193 86.9443 31.1613 86.8731 30.2008C86.8375 29.7739 86.8019 29.3114 86.7664 28.8134C86.7308 28.2798 86.6596 27.7639 86.5528 27.2659C86.4816 26.7678 86.3571 26.3232 86.1791 25.9318C86.0368 25.5405 85.8232 25.2381 85.5385 25.0247C85.5029 24.9891 85.4673 24.9713 85.4317 24.9713C85.3961 24.9713 85.3605 24.9535 85.325 24.918C85.0402 24.7757 84.6132 24.6689 84.0437 24.5978C83.5099 24.4911 82.976 24.5266 82.4422 24.7045C81.9083 24.8468 81.4279 25.167 81.0008 25.665C80.5737 26.1275 80.3246 26.839 80.2534 27.7995C80.1822 29.0446 80.1644 30.272 80.2 31.4815C80.2356 32.6555 80.2712 33.8472 80.3068 35.0568C80.3779 36.2307 80.4135 37.4047 80.4135 38.5787C80.4135 39.7526 80.3424 40.9266 80.2 42.1006V42.314C79.595 42.4919 79.0611 42.5986 78.5984 42.6342C78.1714 42.6698 77.7265 42.6698 77.2638 42.6342C76.8011 42.6342 76.2851 42.6164 75.7157 42.5808C75.1462 42.5453 74.4344 42.563 73.5803 42.6342C73.5803 38.2585 73.5269 33.8828 73.4201 29.5071C73.3489 25.1314 73.3845 20.5956 73.5269 15.8998C73.954 15.9353 74.3099 15.9709 74.5946 16.0065C74.8793 16.0065 75.1462 16.0065 75.3953 16.0065C75.6445 16.0065 75.9114 16.0065 76.1961 16.0065C76.4808 15.9709 76.8367 15.9353 77.2638 15.8998C77.4062 15.8998 77.6553 15.882 78.0112 15.8464C78.3671 15.7752 78.723 15.7219 79.0789 15.6863C79.4348 15.6507 79.7551 15.6507 80.0398 15.6863C80.3246 15.6863 80.4669 15.7397 80.4669 15.8464C80.5381 16.4512 80.5559 16.9492 80.5203 17.3405Z"/>
</mask>
<path d="M13.0754 6.02776C13.6805 6.06333 14.2855 6.04555 14.8905 5.9744V13.1249C14.8905 13.5874 14.8905 14.0677 14.8905 14.5657C14.9261 15.0638 14.9439 15.5796 14.9439 16.1132C16.0472 16.0776 17.2039 16.0243 18.414 15.9531C19.6596 15.882 21.19 15.793 23.0051 15.6863C23.2542 15.9709 23.3965 16.3978 23.4321 16.967C23.4677 17.5006 23.4677 18.0876 23.4321 18.7279C23.3965 19.3683 23.3432 20.0264 23.272 20.7023C23.2364 21.3427 23.2542 21.8941 23.3254 22.3566H15.0507C15.0507 24.2776 15.0507 26.1631 15.0507 28.013C15.0507 29.8273 15.0685 31.5349 15.1041 33.1357C15.46 33.6338 15.976 34.0251 16.6522 34.3097C17.3285 34.5943 18.0581 34.8255 18.841 35.0034C19.624 35.1457 20.407 35.2346 21.19 35.2702C22.0085 35.3058 22.7203 35.3058 23.3254 35.2702C23.3966 35.7683 23.4677 36.3197 23.5389 36.9244C23.6101 37.5292 23.6635 38.1518 23.6991 38.7921C23.7347 39.4325 23.7169 40.0728 23.6457 40.7132C23.6101 41.3535 23.5033 41.9405 23.3254 42.4741C21.9018 42.5453 20.4248 42.5453 18.8944 42.4741C17.364 42.3674 15.9227 42.1539 14.5702 41.8338C13.2178 41.5136 12.0077 41.0333 10.94 40.393C9.90794 39.7526 9.16055 38.8811 8.69788 37.7782C8.23521 35.039 7.96829 32.4598 7.89711 30.0407C7.82593 27.5861 7.80813 25.0603 7.84372 22.4633C7.27428 22.4989 6.66925 22.5167 6.02863 22.5167C5.4236 22.5167 4.74739 22.5167 4 22.5167L4.16015 16.0065C4.87195 16.0421 5.53037 16.0598 6.1354 16.0598C6.77602 16.0598 7.38105 16.0598 7.95049 16.0598C7.95049 15.2772 7.9327 14.4412 7.89711 13.5518C7.86152 12.6269 7.84372 11.7019 7.84372 10.777C7.84372 9.85205 7.84372 8.96268 7.84372 8.10888C7.87931 7.25509 7.93269 6.49023 8.00387 5.81431C8.46654 5.74316 8.9648 5.72538 9.49865 5.76095C10.0681 5.79652 10.6553 5.84989 11.2604 5.92103C11.8654 5.95661 12.4704 5.99219 13.0754 6.02776Z" stroke="white" stroke-width="6" mask="url(#path-2-outside-1_45_90198)"/>
<path d="M28.4887 15.8998C29.7699 15.793 30.98 15.8108 32.1189 15.9531C32.368 17.2338 32.6171 18.7102 32.8663 20.3822C33.1154 22.0186 33.3645 23.6906 33.6137 25.3982C33.8984 27.1058 34.2009 28.7422 34.5212 30.3075C34.8415 31.8372 35.1974 33.1357 35.5889 34.203C35.9804 33.1357 36.3007 32.1396 36.5498 31.2147C36.799 30.2897 37.0481 29.2937 37.2972 28.2264C37.5464 27.1236 37.7955 25.8963 38.0446 24.5444C38.3293 23.157 38.6852 21.485 39.1123 19.5284C39.1123 19.5284 39.1479 19.3327 39.2191 18.9414C39.3259 18.5501 39.4148 18.1232 39.486 17.6607C39.5572 17.1982 39.6284 16.7713 39.6996 16.38C39.7707 15.9887 39.8063 15.793 39.8063 15.793C40.4825 15.8642 41.0698 15.882 41.568 15.8464C42.0663 15.8108 42.529 15.7752 42.956 15.7397C43.4187 15.7041 43.8636 15.6863 44.2907 15.6863C44.7177 15.6863 45.1982 15.7397 45.7321 15.8464C45.9812 17.1271 46.2125 18.6034 46.4261 20.2755C46.6752 21.9475 46.9243 23.6373 47.1735 25.3449C47.4582 27.0524 47.7607 28.6889 48.081 30.2542C48.4013 31.8195 48.7572 33.1357 49.1487 34.203C49.5758 33.1713 49.9851 31.8017 50.3765 30.0941C50.768 28.3509 51.1417 26.5722 51.4976 24.7579C51.8535 22.9436 52.1916 21.236 52.5119 19.6351C52.8678 18.0342 53.206 16.8247 53.5263 16.0065C54.6651 16.0065 55.7506 15.9531 56.7828 15.8464C57.8149 15.7397 59.0427 15.7397 60.4663 15.8464C59.7189 17.8742 59.0605 19.9909 58.4911 22.1965C57.9572 24.3665 57.4412 26.59 56.9429 28.8668C56.4446 31.1435 55.9464 33.4381 55.4481 35.7505C54.9499 38.0273 54.3982 40.2863 53.7932 42.5275C53.0814 42.6342 52.3162 42.6875 51.4976 42.6875C50.7147 42.7231 49.8961 42.7231 49.0419 42.6875C48.2234 42.6875 47.4048 42.6698 46.5862 42.6342C45.8032 42.6342 45.0736 42.6342 44.3974 42.6342C44.0771 40.7132 43.739 38.6676 43.3831 36.4975C43.0628 34.3275 42.7069 32.2464 42.3154 30.2542C41.8883 32.2108 41.5502 34.2741 41.3011 36.4442C41.0876 38.5787 40.7317 40.6064 40.2334 42.5275C39.5216 42.6342 38.7208 42.6875 37.8311 42.6875C36.9769 42.7231 36.0872 42.7231 35.1618 42.6875C34.2721 42.6875 33.3823 42.6698 32.4926 42.6342C31.6384 42.6342 30.8732 42.6342 30.197 42.6342C29.4852 38.1873 28.6666 33.6516 27.7413 29.0268C26.816 24.4021 25.7839 19.9909 24.645 15.793C25.9262 15.9353 27.2075 15.9709 28.4887 15.8998Z" stroke="white" stroke-width="6" mask="url(#path-2-outside-1_45_90198)"/>
<path d="M65.9979 15.6329C66.8165 15.6685 67.7952 15.6685 68.9341 15.6329H69.8416V15.793C69.806 20.0976 69.7171 24.4911 69.5747 28.9735C69.4679 33.4559 69.5391 37.8494 69.7883 42.1539C69.6103 42.3674 69.1654 42.4741 68.4536 42.4741C67.7418 42.5097 66.9588 42.5097 66.1047 42.4741C65.2861 42.4741 64.5031 42.4563 63.7557 42.4207C63.0084 42.3852 62.5101 42.403 62.261 42.4741C62.4389 40.2329 62.5101 37.9561 62.4745 35.6437C62.4745 33.3314 62.4389 31.0368 62.3677 28.76C62.2966 26.4832 62.261 24.242 62.261 22.0364C62.261 19.7952 62.3677 17.6251 62.5813 15.5262V15.4729C62.7236 15.4373 62.955 15.4373 63.2753 15.4729C63.6312 15.5084 63.8981 15.5262 64.0761 15.5262C64.5387 15.5618 65.1793 15.5974 65.9979 15.6329ZM62.4211 8.16225C62.3499 7.02385 62.3321 5.63644 62.3677 4L69.6281 4.16008C69.6281 4.37353 69.6281 4.76486 69.6281 5.33405C69.6637 5.86767 69.6815 6.47244 69.6815 7.14836C69.7171 7.78871 69.7349 8.46463 69.7349 9.17613C69.7705 9.85205 69.7883 10.4568 69.7883 10.9904C69.6459 11.2039 69.3078 11.3462 68.7739 11.4173C68.2757 11.4885 67.6706 11.5241 66.9588 11.5241C66.2826 11.4885 65.553 11.4529 64.7701 11.4173C63.9871 11.3462 63.2575 11.3284 62.5813 11.364C62.5813 10.3323 62.5279 9.26506 62.4211 8.16225Z" stroke="white" stroke-width="6" mask="url(#path-2-outside-1_45_90198)"/>
<path d="M80.5203 17.3405C80.5203 17.7319 80.5381 18.1765 80.5737 18.6746C80.7516 18.5679 80.9652 18.4434 81.2143 18.3011C81.499 18.1588 81.7304 18.0165 81.9083 17.8742C82.6557 17.3405 83.4921 16.9136 84.4174 16.5935C85.3427 16.2733 86.2859 16.0954 87.2468 16.0598C88.2433 16.0243 89.2043 16.131 90.1296 16.38C91.0549 16.629 91.8913 17.0737 92.6387 17.7141C92.9946 18.0342 93.2615 18.7102 93.4395 19.7418C93.653 20.7379 93.7776 21.9475 93.8132 23.3705C93.8844 24.7934 93.9021 26.3587 93.8665 28.0663C93.8665 29.7383 93.8488 31.4459 93.8132 33.1891C93.7776 34.8967 93.742 36.5509 93.7064 38.1518C93.6708 39.7526 93.6886 41.1578 93.7598 42.3674C92.5141 42.5453 91.393 42.6164 90.3965 42.5808C89.4356 42.5808 88.3323 42.5808 87.0867 42.5808C87.0155 41.7626 86.9799 40.8377 86.9799 39.806C86.9799 38.7743 86.9799 37.7071 86.9799 36.6043C87.0155 35.5015 87.0155 34.3986 86.9799 33.2958C86.9799 32.193 86.9443 31.1613 86.8731 30.2008C86.8375 29.7739 86.8019 29.3114 86.7664 28.8134C86.7308 28.2798 86.6596 27.7639 86.5528 27.2659C86.4816 26.7678 86.3571 26.3232 86.1791 25.9318C86.0368 25.5405 85.8232 25.2381 85.5385 25.0247C85.5029 24.9891 85.4673 24.9713 85.4317 24.9713C85.3961 24.9713 85.3605 24.9535 85.325 24.918C85.0402 24.7757 84.6132 24.6689 84.0437 24.5978C83.5099 24.4911 82.976 24.5266 82.4422 24.7045C81.9083 24.8468 81.4279 25.167 81.0008 25.665C80.5737 26.1275 80.3246 26.839 80.2534 27.7995C80.1822 29.0446 80.1644 30.272 80.2 31.4815C80.2356 32.6555 80.2712 33.8472 80.3068 35.0568C80.3779 36.2307 80.4135 37.4047 80.4135 38.5787C80.4135 39.7526 80.3424 40.9266 80.2 42.1006V42.314C79.595 42.4919 79.0611 42.5986 78.5984 42.6342C78.1714 42.6698 77.7265 42.6698 77.2638 42.6342C76.8011 42.6342 76.2851 42.6164 75.7157 42.5808C75.1462 42.5453 74.4344 42.563 73.5803 42.6342C73.5803 38.2585 73.5269 33.8828 73.4201 29.5071C73.3489 25.1314 73.3845 20.5956 73.5269 15.8998C73.954 15.9353 74.3099 15.9709 74.5946 16.0065C74.8793 16.0065 75.1462 16.0065 75.3953 16.0065C75.6445 16.0065 75.9114 16.0065 76.1961 16.0065C76.4808 15.9709 76.8367 15.9353 77.2638 15.8998C77.4062 15.8998 77.6553 15.882 78.0112 15.8464C78.3671 15.7752 78.723 15.7219 79.0789 15.6863C79.4348 15.6507 79.7551 15.6507 80.0398 15.6863C80.3246 15.6863 80.4669 15.7397 80.4669 15.8464C80.5381 16.4512 80.5559 16.9492 80.5203 17.3405Z" stroke="white" stroke-width="6" mask="url(#path-2-outside-1_45_90198)"/>
</svg>
