<?xml version="1.0" standalone="no"?>
<!DOCTYPE svg PUBLIC "-//W3C//DTD SVG 20010904//EN"
 "http://www.w3.org/TR/2001/REC-SVG-20010904/DTD/svg10.dtd">
<svg version="1.0" xmlns="http://www.w3.org/2000/svg"
 width="400.000000pt" height="400.000000pt" viewBox="0 0 400.000000 400.000000"
 preserveAspectRatio="xMidYMid meet">
<metadata>
Created by potrace 1.14, written by Peter Selinger 2001-2017
</metadata>
<g transform="translate(0.000000,400.000000) scale(0.100000,-0.100000)"
fill="#000000" stroke="none">
<path d="M0 2000 l0 -2000 2000 0 2000 0 0 2000 0 2000 -2000 0 -2000 0 0
-2000z m2792 1791 c216 -56 395 -184 514 -367 272 -415 223 -1103 -141 -2009
-203 -505 -391 -758 -599 -805 -44 -10 -85 -5 -141 16 -9 4 -22 -10 -36 -38
-41 -81 -142 -219 -193 -264 -225 -198 -458 -189 -522 22 -18 62 -17 139 4
301 l18 132 -25 11 c-28 13 -20 20 -106 -95 -98 -131 -170 -210 -238 -261 -78
-58 -117 -74 -197 -81 -117 -10 -188 25 -231 115 -42 86 -27 204 48 397 81
206 124 397 109 480 l-7 36 -35 -26 c-71 -54 -216 -105 -299 -105 -82 1 -159
58 -185 136 -17 51 -6 136 25 200 29 60 91 114 240 209 104 66 159 115 185
165 42 82 45 112 45 455 1 309 2 335 23 415 97 365 388 618 825 716 99 23 114
29 154 67 109 102 245 169 401 197 77 14 278 4 364 -19z"/>
<path d="M1734 3386 c-294 -107 -475 -288 -555 -556 -22 -72 -23 -91 -23 -435
l-1 -360 -33 -69 c-39 -82 -124 -169 -232 -236 -223 -138 -255 -173 -255 -270
0 -48 4 -63 24 -83 31 -34 83 -41 154 -22 74 19 115 41 202 105 85 63 111 64
140 5 15 -32 19 -59 18 -140 -2 -123 -28 -227 -111 -445 -32 -85 -64 -176 -70
-202 -47 -188 53 -279 216 -198 77 39 187 154 297 311 77 109 80 116 82 174 3
87 9 114 64 275 55 162 89 310 89 394 0 47 4 59 28 81 38 37 112 73 180 89
l57 13 -70 8 c-84 9 -181 -4 -291 -40 -209 -69 -354 -28 -354 100 0 89 57 165
253 338 139 124 156 177 157 492 0 305 28 465 108 620 20 38 38 73 40 78 6 13
-22 7 -114 -27z"/>
<path d="M2787 3271 c-37 -44 -52 -120 -51 -256 2 -174 44 -330 105 -393 39
-40 60 -40 92 -3 36 43 51 120 50 251 -1 178 -44 333 -110 403 -34 35 -55 34
-86 -2z"/>
<path d="M3145 3237 c-9 -14 -20 -40 -26 -58 -15 -52 -12 -239 6 -314 29 -128
89 -209 130 -175 42 35 50 70 50 215 0 153 -20 244 -68 316 -29 44 -69 51 -92
16z"/>
<path d="M2614 1485 c-33 -7 -91 -28 -128 -46 -81 -40 -137 -97 -291 -299
-177 -233 -268 -320 -374 -361 l-46 -17 -13 -78 c-21 -124 -21 -302 0 -341 32
-58 65 -75 134 -71 126 8 247 95 347 250 93 142 100 162 86 220 -18 79 -5 150
56 306 52 133 81 235 70 252 -8 13 88 95 145 123 55 26 156 56 195 58 20 0 20
0 0 9 -29 13 -111 10 -181 -5z"/>
</g>
</svg>
